<?xml version="1.0" encoding="utf-8"?>
<!-- Generator: Adobe Illustrator 21.0.0, SVG Export Plug-In . SVG Version: 6.00 Build 0)  -->
<svg version="1.1" id="special-site" xmlns="http://www.w3.org/2000/svg" xmlns:xlink="http://www.w3.org/1999/xlink" x="0px"
	 y="0px" viewBox="0 0 10.6 11" style="enable-background:new 0 0 10.6 11;" xml:space="preserve">
<style type="text/css">
	.st0{fill:#92CC66;}
	.st1{fill:#0070E7;}
</style>
<path class="st0" d="M9.6,4.4c0,0.3,0,0.6,0,0.8c0,0.9,0,2.1-1.4,3.4C6.6,10,5.1,9.9,3.9,9.9c-0.2,0-0.3,0-0.5,0
	c-0.5,0-1.4,0.4-1.8,0.7l-1.1,1l0.9,0.8l1-0.9c0.2-0.1,0.5-0.3,0.8-0.3c0.1,0,0.3,0,0.4,0c1.3,0.1,3.4,0.2,5.5-1.7
	c1.9-1.7,1.9-3.5,2-4.5c0-0.2,0-0.5,0-0.7c0.1-0.4,0.2-0.8,0.5-1.1l0.9-0.8l-0.9-0.8l-1,0.9C10,3,9.7,3.7,9.6,4.4z"/>
<path class="st0" d="M7.9,0C7.8,0.1,7.7,0.1,7.7,0.2c-1.2,1.4-2,3-2.2,4.6c0,0.4-0.1,0.8-0.1,1.2C5.3,6,5.2,6,5.1,6
	c-0.2,0-0.4,0-0.6,0C2.2,5.8-0.1,7.4-0.5,7.7C-0.6,7.8-0.8,7.9-0.9,8l-1.2,1.1l0.9,0.8L0,8.8C0,8.7,0.1,8.7,0.2,8.6
	c0.2-0.2,2.2-1.5,4-1.4c0.2,0,0.4,0,0.5,0c1.1,0.1,1.3,0,1.6-0.4l0.1-0.1c0.2-0.2,0.3-0.3,0.3-1c0-0.4,0-0.7,0.1-1.1
	C7,3.3,7.6,2,8.6,0.9l0.1-0.1l1.1-1L9-1L7.9,0z"/>
<path class="st1" d="M10-0.9L8.9,0.2L8.7,0.3c-1,1.2-1.7,2.6-1.9,4c0,0.4-0.1,0.8-0.1,1.2c0,0.7-0.1,0.8-0.3,0.9L6.4,6.5
	C6.1,6.9,6,7,4.9,6.9c-0.2,0-0.4,0-0.5,0c-1.9-0.1-4,1.4-4.2,1.5C0.1,8.4,0,8.5-0.1,8.5l-1.2,1.2l1.9,1.9l1.1-1.1
	C2.2,10.3,3,9.8,3.5,9.9c0.2,0,0.3,0,0.5,0c1.2,0.1,2.8,0.2,4.5-1.4c1.5-1.4,1.5-2.7,1.5-3.7c0-0.3,0-0.6,0-0.9
	c0.1-0.7,0.4-1.4,0.9-2l1-1L10-0.9z"/>
</svg>
